#!OML:ASF X:\für Bonn\!DataBase\2005_08_10_Bjorn_Final\c3d\bjorn.ASF
:FULLY-SPECIFIED
:DEGREES
141
root 0.104924 12.1133 8.63631 -1981.96 1.99214 166.826
lowerback 51.7425 -16.5884 8.51185
upperback 23.9503 -0.61794 7.46973
thorax 6.2561 4.66855 5.24311
lowerneck 0.573592 -6.70584 6.8227
upperneck 3.80103 -8.37649 -9.65328
head 0.34798 -4.00847 -4.33352
rclavicle 3.18055e-015 4.36332e-014
rhumerus 31.3176 -58.706 -79.023
rradius 14.2243
rwrist 12.0671
rhand -9.47897 4.82303
rfingers 7.12502
rthumb 16.4853 -24.4966
lclavicle 3.18055e-015 4.36332e-014
lhumerus -13.9804 -53.0755 81.7785
lradius 46.7429
lwrist -5.42007
lhand -34.9345 -14.7934
lfingers 7.12502
lthumb -8.08156 735.032
rfemur -440.35 -21.1707 359.257
rtibia 109.716
rfoot -23.4689 17.6328
rtoes -21.818
lfemur -71.8033 9.47961 -25.7562
ltibia 110.123
lfoot -27.8502 13.5425
ltoes -23.7011
142
root 0.11641 11.973 8.63513 -1982.61 1.95224 166.745
lowerback 51.6497 -16.7519 8.6329
upperback 23.9241 -0.743678 7.51993
thorax 6.24614 4.63881 5.2909
lowerneck 0.759643 -6.64056 6.99602
upperneck 3.90849 -8.26612 -9.78101
head 0.345485 -3.94668 -4.40973
rclavicle 5.08889e-014 8.93537e-014
rhumerus 31.172 -59.6281 -79.1363
rradius 14.1872
rwrist 12.3431
rhand -9.24584 5.26408
rfingers 7.12502
rthumb 16.7098 -24.0368
lclavicle 5.08889e-014 8.93537e-014
lhumerus -14.9649 -52.474 82.3578
lradius 46.601
lwrist -5.77728
lhand -35.139 -14.0353
lfingers 7.12502
lthumb -8.27896 735.782
rfemur -440.596 -21.681 359.123
rtibia 110.808
rfoot -23.6316 18.1404
rtoes -21.6966
lfemur -71.8495 9.61678 -25.6289
ltibia 111.195
lfoot -28.086 13.6109
ltoes -23.9766
143
root 0.129857 11.8344 8.63495 -1983.29 1.90206 166.69
lowerback 51.5752 -16.9291 8.75112
upperback 23.9182 -0.86937 7.53571
thorax 6.25889 4.61982 5.30631
lowerneck 0.903596 -6.57613 7.21971
upperneck 4.00474 -8.16207 -9.90436
head 0.344589 -3.88931 -4.496
rclavicle -1.52667e-013 -1.03815e-013
rhumerus 30.8153 -60.3893 -79.1259
rradius 14.2501
rwrist 12.4611
rhand -9.10077 5.66615
rfingers 7.12502
rthumb 16.8494 -23.6228
lclavicle -1.52667e-013 -1.03815e-013
lhumerus -15.7886 -51.8855 82.7852
lradius 46.3733
lwrist -6.08109
lhand -35.2085 -13.4898
lfingers 7.12502
lthumb -8.34602 736.325
rfemur -440.786 -22.2064 359.017
rtibia 111.885
rfoot -23.826 18.6187
rtoes -21.6563
lfemur -71.8415 9.76438 -25.4554
ltibia 112.24
lfoot -28.2923 13.6628
ltoes -24.1186
144
root 0.145132 11.6951 8.63537 -1983.98 1.8415 166.605
lowerback 51.4539 -17.0795 8.80359
upperback 23.9499 -0.9988 7.54673
thorax 6.31627 4.59643 5.34697
lowerneck 0.965094 -6.49922 7.43924
upperneck 4.12902 -8.04551 -10.0063
head 0.370386 -3.82856 -4.57884
rclavicle -3.18055e-015 -2.85008e-014
rhumerus 30.0086 -60.8076 -78.6745
rradius 14.4104
rwrist 12.2136
rhand -8.99915 5.95926
rfingers 7.12502
rthumb 16.9473 -23.3214
lclavicle -3.18055e-015 -2.85008e-014
lhumerus -16.5177 -51.3009 83.1228
lradius 46.1388
lwrist -6.31615
lhand -35.2124 -13.2525
lfingers 7.12502
lthumb -8.34979 736.563
rfemur -440.994 -22.7851 358.888
rtibia 112.957
rfoot -23.9904 19.1661
rtoes -21.4943
lfemur -71.8348 9.9205 -25.3043
ltibia 113.271
lfoot -28.4931 13.7093
ltoes -24.2696
145
root 0.162347 11.554 8.63494 -1984.69 1.78845 166.547
lowerback 51.3497 -17.2255 8.81777
upperback 24.0173 -1.1171 7.55418
thorax 6.41184 4.58276 5.40137
lowerneck 0.952804 -6.41727 7.65572
upperneck 4.27571 -7.92467 -10.1155
head 0.417425 -3.76763 -4.66787
rclavicle 9.54166e-014 1.17848e-013
rhumerus 28.7996 -60.8557 -77.8219
rradius 14.6801
rwrist 11.631
rhand -9.01041 6.09826
rfingers 7.12502
rthumb 16.9364 -23.1833
lclavicle 9.54166e-014 1.17848e-013
lhumerus -17.1052 -50.7356 83.3885
lradius 45.8508
lwrist -6.401
lhand -35.1711 -13.2728
lfingers 7.12502
lthumb -8.30986 736.544
rfemur -441.169 -23.3898 358.787
rtibia 114.028
rfoot -24.145 19.7374
rtoes -21.307
lfemur -71.7854 10.1358 -25.1134
ltibia 114.298
lfoot -28.7022 13.7177
ltoes -24.3599
146
root 0.182152 11.4118 8.63413 -1985.43 1.72199 166.457
lowerback 51.2192 -17.3495 8.79064
upperback 24.0977 -1.23792 7.54349
thorax 6.52297 4.56712 5.45347
lowerneck 0.901941 -6.33173 7.8881
upperneck 4.46233 -7.79997 -10.2049
head 0.485661 -3.70576 -4.75596
rclavicle -1.90833e-014 -5.86912e-014
rhumerus 27.2573 -60.6438 -76.6651
rradius 15.0132
rwrist 10.8008
rhand -9.13451 6.04142
rfingers 7.12502
rthumb 16.817 -23.2503
lclavicle -1.90833e-014 -5.86912e-014
lhumerus -17.5583 -50.2168 83.5874
lradius 45.4646
lwrist -6.47758
lhand -35.0505 -13.3027
lfingers 7.12502
lthumb -8.19354 736.518
rfemur -441.351 -24.0609 358.659
rtibia 115.108
rfoot -24.3237 20.316
rtoes -21.1841
lfemur -71.7224 10.3751 -24.9354
ltibia 115.317
lfoot -28.8786 13.7227
ltoes -24.5215
147
root 0.203245 11.2688 8.63434 -1986.18 1.64389 166.382
lowerback 51.1058 -17.4714 8.75481
upperback 24.1832 -1.34991 7.52431
thorax 6.6382 4.55894 5.49848
lowerneck 0.891688 -6.26296 8.11721
upperneck 4.70598 -7.67291 -10.6642
head 0.486742 -3.6516 -4.47176
rclavicle -2.22639e-014 6.94752e-014
rhumerus 25.6277 -60.3223 -75.4702
rradius 15.3938
rwrist 9.94042
rhand -9.34932 5.83424
rfingers 7.12502
rthumb 16.6102 -23.475
lclavicle -2.22639e-014 6.94752e-014
lhumerus -17.9203 -49.7371 83.6918
lradius 45.0811
lwrist -6.6751
lhand -34.8982 -13.2436
lfingers 7.12502
lthumb -8.04654 736.583
rfemur -441.516 -24.7709 358.536
rtibia 116.186
rfoot -24.4615 20.9689
rtoes -20.9436
lfemur -71.6421 10.6224 -24.7292
ltibia 116.331
lfoot -29.0475 13.7185
ltoes -24.5987
